<svg xmlns="http://www.w3.org/2000/svg" viewBox="0 0 256 256" stroke-linecap="round" stroke-linejoin="round">
	<clipPath id="clip">
		<circle cx="128" cy="128" r="96"/>
	</clipPath>
	<circle cx="128" cy="128" r="96" fill="#7289da"/>
	<g clip-path="url(#clip)" stroke-width="8">
		<g>
			<animate
				attributeName="display"
				dur="3.2s"
				calcMode="discrete"
				repeatCount="indefinite"
				keyTimes="0; .05; .0625; .075; .125; .1375; .15; .25; .2625; .275; .325; .3375; .35;"
				values="inline; none; none; none; none; none; inline; none; none; none; none; none; inline;"
			/>
			<path d="
				M108,68
				L120,84
				L206,256
				L198,256
				L112,84
				Z
				M152,76
				L242,256
				L222,256
				L136,84
				Z
				M88,100
				L168,100
				L246,256
				L122,256
				L80,172
				Z
			" fill="#4e5d94" stroke="#4e5d94"/>
			<path d="
				M108,68
				L120,84
				L112,84
				Z
				M152,76
				L144,84
				L136,84
				Z
				M88,100
				L168,100
				L176,172
				L128,184
				L80,172
				Z
			" fill="#ffffff" stroke="#ffffff"/>
			<g fill="none" stroke="#4e5d94">
				<ellipse cx="108" cy="130" rx="6" ry="8"/>
				<ellipse cx="148" cy="130" rx="6" ry="8"/>
				<path d="
					M96,112
					C104,108,108,108,116,108
					M160,112
					C152,108,148,108,140,108
					M112,156
					L128,144
					L144,156
					L144,164
					L128,176
					L112,164
					Z
				"/>
			</g>
		</g>
		<g>
			<animate
				attributeName="display"
				dur="3.2s"
				calcMode="discrete"
				repeatCount="indefinite"
				keyTimes="0; .05; .0625; .075; .125; .1375; .15; .25; .2625; .275; .325; .3375; .35;"
				values="none; inline; none; none; none; inline; none; inline; none; none; none; inline; none;"
			/>
			<path d="
				M108,68
				L120,84
				L206,256
				L198,256
				L112,84
				Z
				M152,76
				L242,256
				L222,256
				L136,84
				Z
				M88,100
				L168,100
				L246,256
				L122,256
				L80,172
				Z
			" fill="#4e5d94" stroke="#4e5d94"/>
			<path d="
				M108,68
				L120,84
				L112,84
				Z
				M152,76
				L144,84
				L136,84
				Z
				M88,100
				L168,100
				L176,172
				L128,184
				L80,172
				Z
			" fill="#ffffff" stroke="#ffffff"/>
			<g fill="none" stroke="#4e5d94">
				<ellipse cx="108" cy="131" rx="6" ry="7"/>
				<ellipse cx="148" cy="131" rx="6" ry="7"/>
				<path d="
					M96,114
					C104,111,108,111,116,111
					M160,114
					C152,111,148,111,140,111
					M112,156
					L128,144
					L144,156
					L144,164
					L128,176
					L112,164
					Z
				"/>
			</g>
		</g>
		<g>
			<animate
				attributeName="display"
				dur="3.2s"
				calcMode="discrete"
				repeatCount="indefinite"
				keyTimes="0; .05; .0625; .075; .125; .1375; .15; .25; .2625; .275; .325; .3375; .35;"
				values="none; none; inline; none; inline; none; none; none; inline; none; inline; none; none;"
			/>
			<path d="
				M108,69
				L120,85
				L205.5,256
				L197.5,256
				L112,85
				Z
				M152,77
				L241.5,256
				L221.5,256
				L136,85
				Z
				M88,101
				L168,101
				L246,256
				L122,256
				L80,172
				Z
			" fill="#4e5d94" stroke="#4e5d94"/>
			<path d="
				M108,69
				L120,85
				L112,85
				Z
				M152,77
				L144,85
				L136,85
				Z
				M88,101
				L168,101
				L176,172
				L128,184
				L80,172
				Z
			" fill="#ffffff" stroke="#ffffff"/>
			<g fill="none" stroke="#4e5d94">
				<ellipse cx="108" cy="132" rx="6" ry="6"/>
				<ellipse cx="148" cy="132" rx="6" ry="6"/>
				<path d="
					M96,116
					C104,114,108,114,116,114
					M160,116
					C152,114,148,114,140,114
					M112,155
					L128,143
					L144,155
					L144,163
					L128,175
					L112,163
					Z
				"/>
			</g>
		</g>
		<g>
			<animate
				attributeName="display"
				dur="3.2s"
				calcMode="discrete"
				repeatCount="indefinite"
				keyTimes="0; .05; .0625; .075; .125; .1375; .15; .25; .2625; .275; .325; .3375; .35;"
				values="none; none; none; inline; none; none; none; none; none; inline; none; none; none;"
			/>
			<path d="
				M108,70
				L120,86
				L205,256
				L197,256
				L112,86
				Z
				M152,78
				L241,256
				L221,256
				L136,86
				Z
				M88,102
				L168,102
				L246,256
				L122,256
				L80,172
				Z
			" fill="#4e5d94" stroke="#4e5d94"/>
			<path d="
				M108,70
				L120,86
				L112,86
				Z
				M152,78
				L144,86
				L136,86
				Z
				M88,102
				L168,102
				L176,172
				L128,184
				L80,172
				Z
			" fill="#ffffff" stroke="#ffffff"/>
			<g fill="none" stroke="#4e5d94">
				<ellipse cx="106" cy="133" rx="7" ry="5"/>
				<ellipse cx="150" cy="133" rx="7" ry="5"/>
				<path d="
					M94,118
					C104,117,108,117,116,117
					M162,118
					C152,117,148,117,140,117
					M112,154
					L128,142
					L144,154
					L144,162
					L128,174
					L112,162
					Z
				"/>
			</g>
		</g>
	</g>
	<circle cx="128" cy="128" r="96" fill="none" stroke="#23272a" stroke-width="4"/>
</svg>
