<svg xmlns="http://www.w3.org/2000/svg" viewBox="0 0 256 256" stroke-linecap="round" stroke-linejoin="round">
	<clipPath id="clip">
		<circle cx="128" cy="128" r="96"/>
	</clipPath>
	<circle cx="128" cy="128" r="96" fill="#e60012"/>
	<g clip-path="url(#clip)" stroke-width="8">
		<path d="
			M191,78
			L161,78
			L158,90
			L241,256
			L256,256
			L256,208
			Z
			M136,106
			L168,106
			L243,256
			L170,256
			L136,188
			Z
		" fill="#a1000d" stroke="#a1000d"/>
		<path d="
			M65,80
			L95,80
			L183,256
			L129,256
			L57,112
			Z
			M88,108
			L120,108
			L194,256
			L118,256
			L80,180
			Z
		" fill="#a1000d" stroke="#a1000d"/>
		<path d="
			M191,78
			L161,78
			L158,90
			L167,90
			A13,13,0,1,1,184,107
			L185,116
			L199,110
			Z
			M136,106
			L168,106
			L176,178
			L136,188
			Z
		" fill="#ffffff" stroke="#ffffff"/>
		<path d="
			M148,133
			L148,141
			Z
			M127,162
			L129,160
			Z
			M128,150
			L144,154
			L144,178
			L128,182
		" fill="#a1000d" stroke="#a1000d"/>
		<path d="
			M65,80
			L95,80
			L98,92
			L89,92
			A13,13,0,1,0,72,109
			L71,118
			L57,112
			Z
			M120,182
			L120,190
			L80,180
			L88,108
			L120,108
			L120,154
		" paint-order="stroke fill" fill="#a1000d" stroke="#ffffff"/>
		<path d="
			M108,135
			L108,143
			Z
			M127,164
			L129,162
			Z
			M120,154
			L112,156
			L112,180
			L120,182
		" fill="#a1000d" stroke="#ffffff"/>
	</g>
	<circle cx="128" cy="128" r="96" fill="none" stroke="#ffffff" stroke-width="4"/>
</svg>
