<svg xmlns="http://www.w3.org/2000/svg" viewBox="0 0 256 256" stroke-linecap="round" stroke-linejoin="round">
	<clipPath id="clip">
		<circle cx="128" cy="128" r="96"/>
	</clipPath>
	<circle cx="128" cy="128" r="96" fill="#7289da"/>
	<g clip-path="url(#clip)" stroke-width="8">
		<path d="
			M108,68
			L120,84
			L206,256
			L198,256
			L112,84
			Z
			M152,76
			L242,256
			L222,256
			L136,84
			Z
			M88,100
			L168,100
			L246,256
			L122,256
			L80,172
			Z
		" fill="#4e5d94" stroke="#4e5d94"/>
		<path d="
			M108,68
			L120,84
			L112,84
			Z
			M152,76
			L144,84
			L136,84
			Z
			M88,100
			L168,100
			L176,172
			L128,184
			L80,172
			Z
		" fill="#ffffff" stroke="#ffffff"/>
		<g fill="none" stroke="#4e5d94">
			<ellipse cx="108" cy="131" rx="6" ry="7"/>
			<ellipse cx="148" cy="131" rx="6" ry="7"/>
			<path d="
				M96,114
				C104,111,108,111,116,111
				M160,114
				C152,111,148,111,140,111
				M112,156
				L128,144
				L144,156
				L144,164
				L128,176
				L112,164
				Z
			"/>
		</g>
	</g>
	<circle cx="128" cy="128" r="96" fill="none" stroke="#23272a" stroke-width="4"/>
</svg>
