<svg xmlns="http://www.w3.org/2000/svg" viewBox="0 0 256 256" width="256" height="256" stroke-linecap="round" stroke-linejoin="round">
	<style>
		.background {
			fill: #7289da;
			stroke: #23272a;
		}
		.foreground {
			fill: #ffffff;
			stroke: #ffffff;
		}
		.marker {
			fill: #4e5d94;
			stroke: #4e5d94;
		}
	</style>
	<linearGradient id="dark-gold" x2="1">
		<stop stop-color="#c90"/>
		<stop offset="1" stop-color="#fc0"/>
	</linearGradient>
	<linearGradient id="light-gold" x2="1">
		<stop stop-color="#fc0"/>
		<stop offset="1" stop-color="#ff3"/>
	</linearGradient>
	<linearGradient id="dark-silver" x2="1">
		<stop stop-color="#666"/>
		<stop offset="1" stop-color="#999"/>
	</linearGradient>
	<linearGradient id="light-silver" x2="1">
		<stop stop-color="#999"/>
		<stop offset="1" stop-color="#ccc"/>
	</linearGradient>
	<linearGradient id="dark-bronze" x2="1">
		<stop stop-color="#630"/>
		<stop offset="1" stop-color="#963"/>
	</linearGradient>
	<linearGradient id="light-bronze" x2="1">
		<stop stop-color="#963"/>
		<stop offset="1" stop-color="#c96"/>
	</linearGradient>
	<clipPath id="clip">
		<circle cx="128" cy="128" r="96"/>
	</clipPath>
	<mask id="mask">
		<rect x="0" y ="0" width="256" height="256" style="fill: #ffffff;"/>
		<path d="
			M108,132
			L108,144
			Z
			M148,132
			L148,144
			Z
			M127,164
			L129,164
			Z
			M112,156
			L128,152
			L144,156
			L144,180
			L128,184
			L112,180
			Z
		" stroke-width="8" style="fill: none; stroke: #000000;"/>
	</mask>
	<circle cx="128" cy="128" r="96" class="background" style="stroke: none;"/>
	<g clip-path="url(#clip)" stroke-width="8">
		<path d="
			M80,180
			L82,162
			L57,112
			L65,80
			L95,80
			L109,108
			L166,108
			L158,92
			L161,80
			L191,80
			L256,210
			L256,256
			L118,256
			Z
		" class="marker"/>
		<path d="
			M65,80
			L95,80
			L98,92
			L89,92
			A13,13,0,1,0,72,109
			L71,118
			L57,112
			Z
			M191,80
			L161,80
			L158,92
			L167,92
			A13,13,0,1,1,184,109
			L185,118
			L199,112
			Z
			M88,108
			L168,108
			L176,180
			L128,192
			L80,180
			Z
		" mask="url(#mask)" class="foreground"/>
	</g>
	<circle cx="128" cy="128" r="96" stroke-width="4" class="background" style="fill: none;"/>
</svg>
