<svg xmlns="http://www.w3.org/2000/svg" viewBox="0 0 16 16" width="192" height="192" stroke-width=".25">
	<style>
		.background {
			fill: #742;
		}
		.foreground {
			fill: #b95;
		}
		.marker {
			fill: #333;
		}
	</style>
	<linearGradient id="dark-gold" x2="1">
		<stop stop-color="#c90"/>
		<stop offset="1" stop-color="#fc0"/>
	</linearGradient>
	<linearGradient id="light-gold" x2="1">
		<stop stop-color="#fc0"/>
		<stop offset="1" stop-color="#ff3"/>
	</linearGradient>
	<linearGradient id="dark-silver" x2="1">
		<stop stop-color="#666"/>
		<stop offset="1" stop-color="#999"/>
	</linearGradient>
	<linearGradient id="light-silver" x2="1">
		<stop stop-color="#999"/>
		<stop offset="1" stop-color="#ccc"/>
	</linearGradient>
	<linearGradient id="dark-bronze" x2="1">
		<stop stop-color="#630"/>
		<stop offset="1" stop-color="#963"/>
	</linearGradient>
	<linearGradient id="light-bronze" x2="1">
		<stop stop-color="#963"/>
		<stop offset="1" stop-color="#c96"/>
	</linearGradient>
	<clipPath id="clip">
		<rect x="0" y="0" width="1" height="1"/>
	</clipPath>
	<symbol id="pixel" viewBox="0 0 1 1">
		<rect x="0" y="0" width="1" height="1" clip-path="url(#clip)"/>
	</symbol>
	<use href="#pixel" x="3" y="0" width="1" height="1" class="background"/>
	<use href="#pixel" x="4" y="0" width="1" height="1" class="background"/>
	<use href="#pixel" x="5" y="0" width="1" height="1" class="background"/>
	<use href="#pixel" x="10" y="0" width="1" height="1" class="background"/>
	<use href="#pixel" x="11" y="0" width="1" height="1" class="background"/>
	<use href="#pixel" x="12" y="0" width="1" height="1" class="background"/>
	<use href="#pixel" x="3" y="1" width="1" height="1" class="background"/>
	<use href="#pixel" x="12" y="1" width="1" height="1" class="background"/>
	<use href="#pixel" x="3" y="2" width="1" height="1" class="background"/>
	<use href="#pixel" x="5" y="2" width="1" height="1" class="background"/>
	<use href="#pixel" x="6" y="2" width="1" height="1" class="background"/>
	<use href="#pixel" x="7" y="2" width="1" height="1" class="background"/>
	<use href="#pixel" x="8" y="2" width="1" height="1" class="background"/>
	<use href="#pixel" x="9" y="2" width="1" height="1" class="background"/>
	<use href="#pixel" x="10" y="2" width="1" height="1" class="background"/>
	<use href="#pixel" x="12" y="2" width="1" height="1" class="background"/>
	<use href="#pixel" x="5" y="3" width="1" height="1" class="background"/>
	<use href="#pixel" x="7" y="3" width="1" height="1" class="background"/>
	<use href="#pixel" x="8" y="3" width="1" height="1" class="background"/>
	<use href="#pixel" x="10" y="3" width="1" height="1" class="background"/>
	<use href="#pixel" x="5" y="4" width="1" height="1" class="background"/>
	<use href="#pixel" x="7" y="4" width="1" height="1" class="background"/>
	<use href="#pixel" x="8" y="4" width="1" height="1" class="background"/>
	<use href="#pixel" x="10" y="4" width="1" height="1" class="background"/>
	<use href="#pixel" x="5" y="5" width="1" height="1" class="background"/>
	<use href="#pixel" x="6" y="5" width="1" height="1" class="background"/>
	<use href="#pixel" x="7" y="5" width="1" height="1" class="background"/>
	<use href="#pixel" x="8" y="5" width="1" height="1" class="background"/>
	<use href="#pixel" x="9" y="5" width="1" height="1" class="background"/>
	<use href="#pixel" x="10" y="5" width="1" height="1" class="background"/>
	<use href="#pixel" x="5" y="6" width="1" height="1" class="background"/>
	<use href="#pixel" x="10" y="6" width="1" height="1" class="background"/>
	<use href="#pixel" x="5" y="7" width="1" height="1" class="background"/>
	<use href="#pixel" x="10" y="7" width="1" height="1" class="background"/>
	<use href="#pixel" x="6" y="9" width="1" height="1" class="background"/>
	<use href="#pixel" x="7" y="9" width="1" height="1" class="background"/>
	<use href="#pixel" x="8" y="9" width="1" height="1" class="background"/>
	<use href="#pixel" x="9" y="9" width="1" height="1" class="background"/>
	<use href="#pixel" x="6" y="10" width="1" height="1" class="background"/>
	<use href="#pixel" x="9" y="10" width="1" height="1" class="background"/>
	<use href="#pixel" x="4" y="11" width="1" height="1" class="background"/>
	<use href="#pixel" x="6" y="11" width="1" height="1" class="background"/>
	<use href="#pixel" x="9" y="11" width="1" height="1" class="background"/>
	<use href="#pixel" x="11" y="11" width="1" height="1" class="background"/>
	<use href="#pixel" x="4" y="12" width="1" height="1" class="background"/>
	<use href="#pixel" x="6" y="12" width="1" height="1" class="background"/>
	<use href="#pixel" x="9" y="12" width="1" height="1" class="background"/>
	<use href="#pixel" x="11" y="12" width="1" height="1" class="background"/>
	<use href="#pixel" x="6" y="13" width="1" height="1" class="background"/>
	<use href="#pixel" x="9" y="13" width="1" height="1" class="background"/>
	<use href="#pixel" x="5" y="15" width="1" height="1" class="background"/>
	<use href="#pixel" x="6" y="15" width="1" height="1" class="background"/>
	<use href="#pixel" x="9" y="15" width="1" height="1" class="background"/>
	<use href="#pixel" x="10" y="15" width="1" height="1" class="background"/>
	<use href="#pixel" x="4" y="1" width="1" height="1" class="foreground"/>
	<use href="#pixel" x="5" y="1" width="1" height="1" class="foreground"/>
	<use href="#pixel" x="10" y="1" width="1" height="1" class="foreground"/>
	<use href="#pixel" x="11" y="1" width="1" height="1" class="foreground"/>
	<use href="#pixel" x="4" y="2" width="1" height="1" class="foreground"/>
	<use href="#pixel" x="11" y="2" width="1" height="1" class="foreground"/>
	<use href="#pixel" x="6" y="6" width="1" height="1" class="foreground"/>
	<use href="#pixel" x="9" y="6" width="1" height="1" class="foreground"/>
	<use href="#pixel" x="6" y="7" width="1" height="1" class="foreground"/>
	<use href="#pixel" x="7" y="7" width="1" height="1" class="foreground"/>
	<use href="#pixel" x="8" y="7" width="1" height="1" class="foreground"/>
	<use href="#pixel" x="9" y="7" width="1" height="1" class="foreground"/>
	<use href="#pixel" x="7" y="10" width="1" height="1" class="foreground"/>
	<use href="#pixel" x="8" y="10" width="1" height="1" class="foreground"/>
	<use href="#pixel" x="7" y="11" width="1" height="1" class="foreground"/>
	<use href="#pixel" x="8" y="11" width="1" height="1" class="foreground"/>
	<use href="#pixel" x="7" y="12" width="1" height="1" class="foreground"/>
	<use href="#pixel" x="8" y="12" width="1" height="1" class="foreground"/>
	<use href="#pixel" x="7" y="13" width="1" height="1" class="foreground"/>
	<use href="#pixel" x="8" y="13" width="1" height="1" class="foreground"/>
	<use href="#pixel" x="6" y="3" width="1" height="1" class="marker"/>
	<use href="#pixel" x="9" y="3" width="1" height="1" class="marker"/>
	<use href="#pixel" x="6" y="4" width="1" height="1" class="marker"/>
	<use href="#pixel" x="9" y="4" width="1" height="1" class="marker"/>
	<use href="#pixel" x="7" y="6" width="1" height="1" class="marker"/>
	<use href="#pixel" x="8" y="6" width="1" height="1" class="marker"/>
</svg>
