<svg xmlns="http://www.w3.org/2000/svg" viewBox="-16 -16 64 64" width="256" height="256"><symbol id="letter-L" viewBox="0 0 24 32"><path d="M18,26L6,26L6,6"/></symbol><symbol id="letter-i" viewBox="0 0 12 32"><path d="M6,26L6,11M6,6L6,6"/></symbol><symbol id="letter-n" viewBox="0 0 20 32"><path d="M14,26L14,14Q14,10,10,10Q6,10,6,14L6,26M6,14L6,10"/></symbol><symbol id="letter-k" viewBox="0 0 20 32"><path d="M6,26L6,6M6,18L8,18M14,10L8,18L14,26"/></symbol><symbol id="link" viewBox="0 0 55 32"><use href="#letter-L" x="0" y="0" width="24" height="32"/><use href="#letter-i" x="17" y="0" width="12" height="32"/><use href="#letter-n" x="22" y="0" width="20" height="32"/><use href="#letter-k" x="35" y="0" width="20" height="32"/></symbol><circle cx="16" cy="16" r="24" fill="#ccc"/><use href="#link" x="2.25" y="8" width="27.5" height="16" fill="none" stroke="#333" stroke-width="4" stroke-linecap="round" stroke-linejoin="round"/></svg>
